<svg width="20" height="21" viewBox="0 0 20 21" fill="none" xmlns="http://www.w3.org/2000/svg">
<path d="M10.6692 17.9506L11.1051 18.5609L11.1051 18.5609L10.6692 17.9506ZM10.7222 17.9128L10.2902 17.2997L10.7222 17.9128ZM13.5703 17.0001L13.5751 17.7501L13.5703 17.0001ZM6.3959 18.5103L7.09226 18.7888L6.3959 18.5103ZM8.05848 19.8154L7.62255 19.2051L7.62255 19.2051L8.05848 19.8154ZM18.9944 12.2364L18.2452 12.201L18.9944 12.2364ZM14.2364 16.9944L14.201 16.2452L14.2364 16.9944ZM3.73005 1.54497L4.07054 2.21322L3.73005 1.54497ZM1.54497 3.73005L2.21322 4.07054L1.54497 3.73005ZM16.27 1.54497L15.9295 2.21322L16.27 1.54497ZM18.455 3.73005L17.7868 4.07054L18.455 3.73005ZM6 10.75C5.58579 10.75 5.25 11.0858 5.25 11.5C5.25 11.9142 5.58579 12.25 6 12.25V10.75ZM14 12.25C14.4142 12.25 14.75 11.9142 14.75 11.5C14.75 11.0858 14.4142 10.75 14 10.75V12.25ZM6 6.25C5.58579 6.25 5.25 6.58579 5.25 7C5.25 7.41421 5.58579 7.75 6 7.75V6.25ZM14 7.75C14.4142 7.75 14.75 7.41421 14.75 7C14.75 6.58579 14.4142 6.25 14 6.25V7.75ZM11 0.25H9V1.75H11V0.25ZM0.25 9V13.2283H1.75V9H0.25ZM19.75 11.6988V9H18.25V11.6988H19.75ZM4.77166 17.75H5.37341V16.25H4.77166V17.75ZM8.49441 20.4257L11.1051 18.5609L10.2333 17.3403L7.62255 19.2051L8.49441 20.4257ZM11.1051 18.5609C11.1325 18.5413 11.1436 18.5334 11.1543 18.5259L10.2902 17.2997C10.2747 17.3107 10.2592 17.3218 10.2333 17.3403L11.1051 18.5609ZM13.6504 16.25C13.609 16.25 13.5846 16.25 13.5655 16.2501L13.5751 17.7501C13.5881 17.75 13.6063 17.75 13.6504 17.75V16.25ZM11.1543 18.5259C11.8632 18.0264 12.7079 17.7556 13.5751 17.7501L13.5655 16.2501C12.3922 16.2576 11.2493 16.6239 10.2902 17.2997L11.1543 18.5259ZM5.37341 17.75C5.62191 17.75 5.79183 18.001 5.69954 18.2317L7.09226 18.7888C7.57867 17.5728 6.68311 16.25 5.37341 16.25V17.75ZM5.69954 18.2317C5.01288 19.9484 6.9899 21.5003 8.49441 20.4257L7.62255 19.2051C7.33709 19.409 6.96197 19.1145 7.09226 18.7888L5.69954 18.2317ZM18.25 11.6988C18.25 11.9871 18.2498 12.105 18.2452 12.201L19.7436 12.2719C19.7502 12.1316 19.75 11.9699 19.75 11.6988H18.25ZM13.6504 17.75C13.9525 17.75 14.1313 17.7502 14.2719 17.7436L14.201 16.2452C14.1053 16.2498 13.9721 16.25 13.6504 16.25V17.75ZM18.2452 12.201C18.1416 14.3902 16.3902 16.1416 14.201 16.2452L14.2719 17.7436C17.2338 17.6033 19.6033 15.2338 19.7436 12.2719L18.2452 12.201ZM0.25 13.2283C0.25 15.7256 2.27441 17.75 4.77166 17.75V16.25C3.10284 16.25 1.75 14.8972 1.75 13.2283H0.25ZM9 0.25C7.61224 0.25 6.52632 0.249417 5.65494 0.320612C4.77479 0.392522 4.04768 0.541378 3.38955 0.876713L4.07054 2.21322C4.48197 2.00359 4.9897 1.87996 5.77708 1.81563C6.57322 1.75058 7.58749 1.75 9 1.75V0.25ZM1.75 9C1.75 7.58749 1.75058 6.57322 1.81563 5.77708C1.87996 4.9897 2.00359 4.48197 2.21322 4.07054L0.876713 3.38955C0.541378 4.04768 0.392522 4.77479 0.320612 5.65494C0.249417 6.52632 0.25 7.61224 0.25 9H1.75ZM3.38955 0.876713C2.30762 1.42798 1.42798 2.30762 0.876713 3.38955L2.21322 4.07054C2.62068 3.27085 3.27085 2.62068 4.07054 2.21322L3.38955 0.876713ZM11 1.75C12.4125 1.75 13.4268 1.75058 14.2229 1.81563C15.0103 1.87996 15.518 2.00359 15.9295 2.21322L16.6104 0.876713C15.9523 0.541378 15.2252 0.392522 14.3451 0.320612C13.4737 0.249417 12.3878 0.25 11 0.25V1.75ZM19.75 9C19.75 7.61224 19.7506 6.52632 19.6794 5.65494C19.6075 4.77479 19.4586 4.04768 19.1233 3.38955L17.7868 4.07054C17.9964 4.48197 18.12 4.9897 18.1844 5.77708C18.2494 6.57322 18.25 7.58749 18.25 9H19.75ZM15.9295 2.21322C16.7291 2.62068 17.3793 3.27085 17.7868 4.07054L19.1233 3.38955C18.572 2.30762 17.6924 1.42798 16.6104 0.876713L15.9295 2.21322ZM6 12.25H14V10.75H6V12.25ZM6 7.75H14V6.25H6V7.75Z" fill="#FAFAFA"/>
</svg>
